<?xml version="1.0" standalone="no"?>
<!DOCTYPE svg PUBLIC "-//W3C//DTD SVG 20010904//EN"
 "http://www.w3.org/TR/2001/REC-SVG-20010904/DTD/svg10.dtd">
<svg version="1.0" xmlns="http://www.w3.org/2000/svg"
 width="900.000000pt" height="348.000000pt" viewBox="0 0 900.000000 348.000000"
 preserveAspectRatio="xMidYMid meet">
<metadata>
Created by potrace 1.10, written by Peter Selinger 2001-2011
</metadata>
<g transform="translate(0.000000,348.000000) scale(0.100000,-0.100000)"
fill="#606060" stroke="none">
<path d="M0 1740 l0 -1740 4500 0 4500 0 0 1740 0 1740 -4500 0 -4500 0 0
-1740z m2490 1405 c26 -32 -18 -71 -48 -42 -14 15 -14 18 3 37 22 24 29 25 45
5z m2824 -191 c20 -19 20 -28 1 -44 -12 -10 -21 -10 -40 -2 -29 14 -32 30 -7
48 22 17 27 17 46 -2z m3186 -54 c0 -21 -33 -29 -45 -10 -9 15 4 30 26 30 12
0 19 -7 19 -20z m-7270 -326 c0 -17 -39 -29 -53 -15 -7 7 -7 18 2 37 11 26 12
26 31 9 11 -10 20 -24 20 -31z m4068 -45 c4 -33 -20 -53 -53 -45 -21 5 -25 12
-25 42 0 35 1 35 38 32 31 -3 37 -7 40 -29z m-2184 5 c9 -3 16 -15 16 -25 0
-15 -7 -19 -35 -19 -27 0 -35 4 -35 18 0 31 19 40 54 26z m-1267 -70 c3 -8 1
-20 -6 -27 -14 -14 -47 15 -37 32 10 16 36 13 43 -5z m-1779 -157 c3 -21 -1
-27 -17 -27 -22 0 -30 16 -23 43 7 27 37 16 40 -16z m3101 -811 c16 -19 -3
-56 -28 -56 -19 0 -37 42 -26 60 9 15 41 12 54 -4z m-659 -41 c0 -19 -20 -29
-32 -17 -8 8 -7 16 2 26 14 17 30 12 30 -9z m1145 -265 c0 -7 -6 -15 -12 -17
-8 -3 -13 4 -13 17 0 13 5 20 13 18 6 -3 12 -11 12 -18z m-71 -281 c13 -19 13
-24 -1 -45 -18 -28 -30 -30 -55 -7 -24 22 -23 48 5 61 31 15 34 15 51 -9z
m-2854 -79 c0 -13 -7 -20 -20 -20 -13 0 -20 7 -20 20 0 13 7 20 20 20 13 0 20
-7 20 -20z m420 -219 c0 -17 -5 -33 -10 -36 -17 -10 -49 5 -55 25 -9 28 2 40
36 40 25 0 29 -4 29 -29z m2010 -51 c0 -15 -7 -20 -25 -20 -18 0 -25 5 -25 20
0 15 7 20 25 20 18 0 25 -5 25 -20z m2318 -407 c5 -17 -26 -29 -40 -15 -6 6
-7 15 -3 22 9 14 37 9 43 -7z m-2756 -18 c10 -22 9 -29 -10 -47 -18 -19 -25
-20 -47 -10 -16 8 -25 20 -25 35 0 50 62 66 82 22z"/>
</g>
</svg>
